<?xml version="1.0" encoding="iso-8859-1"?>
<!-- Generator: Adobe Illustrator 19.0.0, SVG Export Plug-In . SVG Version: 6.00 Build 0)  -->
<svg version="1.1" id="Capa_1" xmlns="http://www.w3.org/2000/svg" xmlns:xlink="http://www.w3.org/1999/xlink" x="0px" y="0px"
	 viewBox="0 0 110.001 110.001" style="enable-background:new 0 0 110.001 110.001;" xml:space="preserve">
<g id="_x0A_glasses">
	<g>
		<path style="fill-rule:evenodd;clip-rule:evenodd;" d="M107.925,44.004c-0.39-0.41-0.878-0.731-1.325-1.086
			c-2.7-2.137-5.701-3.801-8.607-5.624c-3.318-2.083-6.765-3.79-10.409-5.192c-2.231-0.858-4.452-1.818-6.347-3.35
			c-2.092-1.692-4.533-2.223-7.09-1.778c-1.541,0.269-3,1.03-4.482,1.598c-0.197,0.074-0.353,0.293-0.49,0.47
			c-0.846,1.082-1.718,2.146-2.511,3.266c-0.614,0.867-0.821,1.873-0.679,2.943c0.155,1.156,1.455,2.054,2.531,1.633
			c0.731-0.285,1.45-0.681,2.078-1.156c1.184-0.896,2.294-1.89,3.439-2.836c0.528-0.437,1.064-0.865,1.605-1.285
			c0.621-0.479,1.264-0.458,1.908-0.043c0.479,0.309,0.965,0.609,1.433,0.935c1.503,1.043,3.012,2.082,4.498,3.149
			c2.812,2.019,6.017,3.303,9.119,4.744c1.459,0.679,2.817,1.486,4.2,2.274c0.142,0.081,0.197,0.314,0.293,0.478
			c-0.214,0.071-0.424,0.196-0.641,0.205c-2.174,0.095-4.359,0.048-6.518,0.273c-5.004,0.522-9.995,1.062-15.04,1.07
			c-15.688,0.022-31.378,0.119-47.066,0.214c-1.71,0.01-3.419,0.247-5.13,0.296c-2.746,0.077-5.494,0.091-8.241,0.105
			c-0.137,0.002-0.296-0.213-0.396-0.359c-0.036-0.05,0.042-0.245,0.12-0.299c2.27-1.529,4.477-3.174,6.845-4.534
			c2.096-1.206,4.023-2.587,5.919-4.075c2.996-2.355,2.875-2.223,4.609,0.578c0.477,0.771,1.137,1.432,1.736,2.123
			c1.092,1.26,2.527,1.94,4.11,2.336c2.226,0.556,4.198-1.234,3.795-3.491c-0.138-0.774-0.411-1.558-0.78-2.253
			c-1.236-2.336-2.811-4.447-4.572-6.409c-1.083-1.206-2.494-1.602-4.063-1.274c-1.465,0.304-2.855,0.846-4.11,1.67
			c-2.294,1.509-4.592,3.012-6.847,4.578c-4.695,3.264-9.359,6.571-14.044,9.85c-1.407,0.986-2.84,1.92-4.656,1.994
			c-0.439,0.018-0.874,0.256-1.304,0.415c-0.561,0.208-0.978,0.781-0.756,1.352c0.526,1.354,0.222,2.646,0.05,4.003
			c-0.257,2.026,0.833,3.171,2.903,3.354c0.229,0.019,0.459-0.007,0.687,0.013c1.48,0.129,1.61,0.303,1.741,1.925
			c0.133,1.592,0.245,3.19,0.493,4.765c0.532,3.385,1.094,6.766,1.751,10.127c0.304,1.56,0.732,3.125,1.342,4.588
			c0.428,1.021,1.104,2.062,1.943,2.765c2.127,1.778,4.59,2.94,7.342,3.531c2.832,0.608,5.697,0.425,8.545,0.556
			c5.305,0.246,10.486-0.58,15.559-2.089c0.854-0.255,1.758-0.653,2.402-1.242c2.264-2.067,3.792-4.553,3.842-7.749
			c0.018-1.029-0.061-2.091,0.162-3.08c0.831-3.706,0.715-7.506,1.177-11.248c0.411-3.335,0.317-3.19,3.382-3.336
			c0.91-0.045,1.828-0.042,2.739-0.002c0.503,0.021,0.866,0.355,0.88,0.871c0.051,1.6,0.063,3.203,0.074,4.804
			c0.025,3.655-0.207,7.332,0.748,10.919c0.378,1.424,0.367,2.961,1.223,4.25c0.887,1.334,1.768,2.672,2.65,4.01
			c0.461,0.701,1.084,1.087,1.924,1.292c4.552,1.11,9.072,2.387,13.84,1.944c0.455-0.042,0.916-0.006,1.375-0.006v-0.104
			c2.518,0,5.051,0.172,7.55-0.049c2.607-0.229,5.171-0.908,7.774-1.258c2.364-0.317,3.985-1.602,5.149-3.56
			c0.463-0.78,0.821-1.634,1.132-2.489c0.893-2.463,1.445-5.049,2.804-7.34c0.28-0.475,0.323-1.091,0.466-1.643
			c0.952-3.647,1.857-7.304,2.875-10.931c0.347-1.237,0.373-2.741,2.184-3.126c0.717-0.151,0.354-1.244,0.66-1.822
			C110.749,47.639,109.59,45.758,107.925,44.004z M6.459,49.97c-0.43,0.317-0.892,0.612-1.38,0.829
			c-0.542,0.239-1.034-0.209-1.021-0.854c0.01-0.471,0.162-0.921,0.613-1.052c0.605-0.176,1.282-0.43,1.815,0.21
			c0.065,0.079,0.098,0.183,0.146,0.276C6.58,49.582,6.592,49.873,6.459,49.97z M38.434,76.013c-0.33,0.27-0.822,0.409-1.258,0.469
			c-3.518,0.479-7.037,0.808-10.578,0.158c-1.007-0.185-2.043-0.222-3.067-0.279c-0.799-0.045-1.603,0.014-2.401-0.025
			c-3.418-0.166-5.926-1.515-6.744-5.136c-0.375-1.666-0.875-3.305-1.315-4.955c-0.145-0.55-0.21-1.131-0.428-1.647
			c-1.383-3.276-1.18-6.709-1.025-10.133c0.054-1.212,0.417-1.478,1.776-1.505c0.915-0.019,1.831,0.01,2.746,0.012
			c3.547,0.002,7.094,0,10.641,0v-0.128c4.573,0,9.146-0.004,13.72,0.004c1.098,0.003,1.409,0.295,1.416,1.427
			c0.025,5.148-0.052,10.297,0.064,15.443C42.045,72.6,40.428,74.386,38.434,76.013z M100.146,57.13
			c-0.487,3.164-1.211,6.272-2.435,9.259c-0.78,1.9-1.622,3.816-2.053,5.809c-0.52,2.396-2.291,2.963-4.185,3.459
			c-0.755,0.196-1.595,0.096-2.396,0.096c-3.09,0.003-6.183-0.012-9.274-0.009c-1.029,0-2.084-0.104-3.085,0.08
			c-2.413,0.442-4.775-0.114-7.157-0.218c-0.786-0.033-1.558-0.341-2.342-0.485c-0.755-0.14-1.229-0.591-1.476-1.278
			c-0.385-1.073-0.863-2.136-1.067-3.247c-0.708-3.835-0.84-7.724-0.876-11.618c-0.014-1.531,0.547-2.915,1.037-4.312
			c0.551-1.575,0.758-1.7,2.513-1.705c5.152-0.015,10.304-0.006,13.885-0.006c6.035-0.119,10.499-0.207,14.962-0.295
			C100.196,52.581,100.758,53.165,100.146,57.13z"/>
	</g>
</g>
<g>
</g>
<g>
</g>
<g>
</g>
<g>
</g>
<g>
</g>
<g>
</g>
<g>
</g>
<g>
</g>
<g>
</g>
<g>
</g>
<g>
</g>
<g>
</g>
<g>
</g>
<g>
</g>
<g>
</g>
</svg>
